#N canvas 197 520 482 372 12;
#X msg 46 79 disconnect;
#X obj 76 294 print backwards;
#X text 55 333 "1" if connection is open \, "0" otherwise.;
#X floatatom 30 332 2 0 0 0 - - - 0;
#X obj 30 295 tgl 19 0 empty empty empty 0 -10 0 12 #dfdfdf #000000 #000000 0 1;
#X msg 30 45 connect 192.168.4.1 10000;
#X obj 30 265 netsend -u -b;
#X obj 70 133 hsl 162 19 0 3.3 0 1 empty empty Send\ on\ /ldr/volts -2 -10 0 12 #ffe3c6 #000000 #000000 6900 1;
#X floatatom 75 157 8 0 0 0 - - - 0;
#X obj 67 183 oscformat -f f ldr volts;
#X text 31 10 An OSC client sending data;
#X obj 277 183 symbol;
#X obj 277 213 oscformat -f s ldr volts;
#X msg 277 153 hello;
#X text 328 153 ← click to send a string, f 16;
#X text 360 62 wrong address ↓, f 10;
#X obj 270 43 hsl 162 19 0 500 0 1 empty empty Send\ on\ /temp/kelvin -2 -10 0 12 #e3c6ff #000000 #000000 4590 1;
#X floatatom 275 67 8 0 0 0 - - - 0;
#X obj 267 93 oscformat -f f temp kelvin;
#X connect 0 0 6 0;
#X connect 4 0 3 0;
#X connect 5 0 6 0;
#X connect 6 0 4 0;
#X connect 6 1 1 0;
#X connect 7 0 8 0;
#X connect 7 0 9 0;
#X connect 9 0 6 0;
#X connect 11 0 12 0;
#X connect 12 0 6 0;
#X connect 13 0 11 0;
#X connect 16 0 17 0;
#X connect 16 0 18 0;
#X connect 18 0 6 0;
