#N canvas 485 464 384 337 12;
#X obj 31 144 oscparse;
#X obj 31 177 list trim;
#X msg 31 38 listen 10000;
#X msg 51 68 listen 0;
#X obj 31 111 netreceive -u -b -f;
#X text 178 93 -u for UDP mode \; -b for binary data \; -f add the rightmost output;
#X obj 161 141 list trim;
#X obj 161 205 print client;
#X text 178 169 print the client IP and port number, f 27;
#X text 30 8 A minimal OSC server;
#X obj 31 300 print OSC message;
#X obj 51 210 route ldr;
#X obj 51 240 route volts;
#X floatatom 51 270 10 0 0 1 V - - 0;
#X text 120 69 ← click to stop listening;
#X text 130 37 ← click to start listening incoming data packet on port 10000, f 34;
#X connect 0 0 1 0;
#X connect 1 0 10 0;
#X connect 1 0 11 0;
#X connect 2 0 4 0;
#X connect 3 0 4 0;
#X connect 4 0 0 0;
#X connect 4 1 6 0;
#X connect 6 0 7 0;
#X connect 11 0 12 0;
#X connect 12 0 13 0;
